Coordinates
version=1
nRows=14
nColumns=24
inDegrees=yes

Units are S.I. units (second, meters, Newtons, ...)
Angles are in degrees.

endheader
time	pelvis_tilt	pelvis_list	pelvis_rotation	pelvis_tx	pelvis_ty	pelvis_tz	hip_flexion_r	hip_adduction_r	hip_rotation_r	knee_angle_r	ankle_angle_r	subtalar_angle_r	mtp_angle_r	hip_flexion_l	hip_adduction_l	hip_rotation_l	knee_angle_l	ankle_angle_l	subtalar_angle_l	mtp_angle_l	lumbar_extension	lumbar_bending	lumbar_rotation
      1.85000000	     -8.74446788	      6.61818844	     -2.64134400	      0.09288839	      0.96265664	     -0.02854994	     27.94927009	     -9.85992151	     -3.11637400	    -58.71893509	      4.50117836	      0.00000000	      0.00000000	     18.99769203	     11.00963760	     -0.14116468	    -18.18548991	      8.41913414	      0.00000000	      0.00000000	      5.89607120	     -6.27058037	     -0.94422090
      1.86000000	     -8.74593190	      6.43957204	     -2.81975307	      0.09134324	      0.96280665	     -0.02869436	     28.84031193	     -9.60316590	     -3.10449086	    -57.55975154	      5.61225170	      0.00000000	      0.00000000	     18.60670008	     10.85832379	     -0.20535935	    -18.19022569	      8.74486751	      0.00000000	      0.00000000	      5.77198427	     -6.06632716	     -0.83355603
      1.87000000	     -8.74425202	      6.36940744	     -2.95438940	      0.08977720	      0.96297994	     -0.02896670	     29.69175641	     -9.46697467	     -3.07186924	    -56.21541027	      6.12732049	      0.00000000	      0.00000000	     18.21803794	     10.85827743	     -0.13484207	    -18.19506638	      8.92285294	      0.00000000	      0.00000000	      5.64447049	     -5.98616563	     -0.74193126
      1.88000000	     -8.85338098	      6.04184055	     -3.18715705	      0.08824948	      0.96298349	     -0.02881817	     30.55267033	     -8.91970350	     -2.98367910	    -54.70858388	      7.30399859	      0.00000000	      0.00000000	     17.83497410	     10.53643548	     -0.03640885	    -18.03282171	      9.34000447	      0.00000000	      0.00000000	      5.65869102	     -5.60527160	     -0.60403478
      1.89000000	     -8.95054671	      5.80594132	     -3.35410498	      0.08667754	      0.96297970	     -0.02881754	     31.35185912	     -8.48900882	     -2.88572213	    -53.04871594	      7.93102323	      0.00000000	      0.00000000	     17.49963493	     10.35329831	      0.18562584	    -17.98738809	      9.68213457	      0.00000000	      0.00000000	      5.64358581	     -5.32939912	     -0.51899332
      1.90000000	     -9.06938808	      5.55524339	     -3.49249560	      0.08511495	      0.96293696	     -0.02876427	     32.10264417	     -8.02558082	     -2.77261963	    -51.24833295	      8.36800146	      0.00000000	      0.00000000	     17.19175832	     10.16292770	      0.48685255	    -17.97262313	     10.02776757	      0.00000000	      0.00000000	      5.65106759	     -5.04736164	     -0.47118685
      1.91000000	     -9.13918276	      5.50175139	     -3.61101928	      0.08351949	      0.96289309	     -0.02879389	     32.82268236	     -7.77662959	     -2.57341598	    -49.42133551	      8.56247952	      0.00000000	      0.00000000	     16.86479291	     10.19726497	      0.79768740	    -17.98212017	     10.24047385	      0.00000000	      0.00000000	      5.59986682	     -4.99340701	     -0.45407798
      1.92000000	     -9.34918446	      5.01173515	     -3.69534032	      0.08202194	      0.96278739	     -0.02863257	     33.45965134	     -7.03510061	     -2.48262185	    -47.31400814	      8.67878610	      0.00000000	      0.00000000	     16.62448266	      9.76290564	      1.25266172	    -17.98695963	     10.75341316	      0.00000000	      0.00000000	      5.70067858	     -4.43638845	     -0.49611568
      1.93000000	     -9.51455962	      4.71608349	     -3.75306787	      0.08052761	      0.96268193	     -0.02858002	     34.06398561	     -6.53056911	     -2.32337562	    -45.20307701	      8.53683694	      0.00000000	      0.00000000	     16.37279222	      9.54521416	      1.67259652	    -18.03036169	     11.15897700	      0.00000000	      0.00000000	      5.75558396	     -4.10002948	     -0.57894778
      1.94000000	     -9.59206774	      4.76795436	     -3.78813297	      0.07896916	      0.96253487	     -0.02856524	     34.66827453	     -6.39977878	     -2.01671060	    -43.24511504	      8.52593421	      0.00000000	      0.00000000	     16.07345036	      9.69160334	      1.95753433	    -18.07567323	     11.34557854	      0.00000000	      0.00000000	      5.69822991	     -4.18784289	     -0.64009891
      1.95000000	     -9.82481100	      4.34756608	     -3.83340890	      0.07766831	      0.96243034	     -0.02846884	     35.17819601	     -5.76755540	     -1.79114669	    -40.95869462	      8.00762318	      0.00000000	      0.00000000	     15.73689282	      9.32435170	      2.45450086	    -17.83200143	     11.75655794	      0.00000000	      0.00000000	      5.84761362	     -3.69587397	     -0.70935198
      1.96000000	     -9.90995790	      4.38534069	     -3.80536103	      0.07611249	      0.96224034	     -0.02853277	     35.67126112	     -5.67925200	     -1.51280735	    -38.90142740	      7.84109940	      0.00000000	      0.00000000	     15.48685261	      9.45121685	      2.62934005	    -17.95347608	     11.96164942	      0.00000000	      0.00000000	      5.77682906	     -3.75963918	     -0.85298118
      1.97000000	    -10.10871458	      3.85849708	     -3.77525586	      0.07479422	      0.96218239	     -0.02853139	     35.97317094	     -5.04911133	     -1.45075045	    -36.43789922	      6.78512676	      0.00000000	      0.00000000	     15.22179103	      8.96782660	      2.96226468	    -17.95123343	     12.41654521	      0.00000000	      0.00000000	      5.84174090	     -3.13573701	     -1.04139098
      1.98000000	    -10.22568998	      3.90837553	     -3.68158793	      0.07335452	      0.96191809	     -0.02866871	     36.39801849	     -5.03728660	     -1.18312170	    -34.36062072	      6.58856975	      0.00000000	      0.00000000	     14.95816244	      9.09799204	      3.09943582	    -17.99102530	     12.63230383	      0.00000000	      0.00000000	      5.81227677	     -3.21682415	     -1.17925764
